<mxfile host="Electron" modified="2024-05-16T01:09:36.107Z" agent="Mozilla/5.0 (Windows NT 10.0; Win64; x64) AppleWebKit/537.36 (KHTML, like Gecko) draw.io/24.2.5 Chrome/120.0.6099.109 Electron/28.1.0 Safari/537.36" etag="baS8JAnkAodiDn1M8cY6" version="24.2.5" type="device">
  <diagram name="第 1 页" id="ewl9boTtj5eG1xmZE2dz">
    <mxGraphModel dx="98" dy="63" grid="1" gridSize="3.937" guides="1" tooltips="1" connect="1" arrows="1" fold="1" page="1" pageScale="1" pageWidth="48" pageHeight="48" background="#464647" math="0" shadow="0">
      <root>
        <mxCell id="0" />
        <mxCell id="1" parent="0" />
        <mxCell id="tneqvr_D7_-3OC6fO03h-1" value="" style="endArrow=none;html=1;rounded=0;strokeColor=#E6E6E6;strokeWidth=2;" parent="1" edge="1">
          <mxGeometry width="50" height="50" relative="1" as="geometry">
            <mxPoint x="43" y="24" as="sourcePoint" />
            <mxPoint x="4" y="24" as="targetPoint" />
          </mxGeometry>
        </mxCell>
        <mxCell id="tneqvr_D7_-3OC6fO03h-4" value="" style="verticalLabelPosition=bottom;verticalAlign=top;html=1;shape=mxgraph.basic.orthogonal_triangle;flipH=0;fillColor=#E6E6E6;strokeColor=#E6E6E6;strokeWidth=2;rotation=-90;container=0;" parent="1" vertex="1">
          <mxGeometry x="17.939999999999998" y="-2" width="16.13" height="27.56" as="geometry" />
        </mxCell>
        <mxCell id="CQysKRkSlJ56ArCMx3Cn-2" value="" style="verticalLabelPosition=bottom;verticalAlign=top;html=1;shape=mxgraph.basic.orthogonal_triangle;flipH=1;fillColor=none;strokeColor=#E6E6E6;strokeWidth=2;rotation=-90;container=0;flipV=0;" vertex="1" parent="1">
          <mxGeometry x="18.47" y="22.09" width="15.07" height="27.56" as="geometry" />
        </mxCell>
      </root>
    </mxGraphModel>
  </diagram>
</mxfile>
